<?xml version="1.0" encoding="UTF-8" standalone="no" ?>
<!DOCTYPE svg PUBLIC "-//W3C//DTD SVG 1.1//EN" "http://www.w3.org/Graphics/SVG/1.1/DTD/svg11.dtd">
<svg xmlns="http://www.w3.org/2000/svg" xmlns:xlink="http://www.w3.org/1999/xlink" version="1.1" 
	xml:space="preserve" width="100" height="50" viewBox="0 0 675 400">
	<desc>Created with Fabric.js 3.6.6</desc>
	<defs>
	</defs>
	<g transform="matrix(1.49 0 0 1.49 328.69 240.5)">
		<g style="">
			<g transform="matrix(1.43 0 0 1.43 -124.95 7.2)">
				<path
					style="stroke: none; stroke-width: 1; stroke-dasharray: none; stroke-linecap: butt; stroke-dashoffset: 0; stroke-linejoin: miter; stroke-miterlimit: 4; fill: rgb(14,164,122); fill-rule: nonzero; opacity: 1;"
					transform=" translate(-50, -50)"
					d="M 50 10 L 15 30 v 40 l 35 20 l 34.99 -19.994 L 85 69.99 V 30 L 50 10 z M 50 17.699 L 74.89 31.92 l -6.732 3.848 L 50 25.397 L 31.846 35.771 l -6.738 -3.851 L 50 17.699 z M 64.795 41.546 v 13.059 L 53.369 48.08 V 35.02 L 64.795 41.546 z M 46.631 35.02 v 13.057 l -11.423 6.527 V 41.546 L 46.631 35.02 z M 46.631 80.377 L 21.735 66.152 v -28.46 l 6.734 3.848 v 20.761 L 46.631 72.68 V 80.377 z M 38.571 60.377 l 11.426 -6.529 l 11.429 6.529 L 50 66.904 L 38.571 60.377 z M 78.265 66.152 L 53.369 80.377 V 72.68 L 71.53 62.305 V 41.54 l 6.734 -3.848 V 66.152 z"
					stroke-linecap="round" />
			</g>
			<g transform="matrix(1.34 0 0 1.34 70.23 6.82)">
				<path
					style="stroke: none; stroke-width: 1; stroke-dasharray: none; stroke-linecap: butt; stroke-dashoffset: 0; stroke-linejoin: miter; stroke-miterlimit: 4; fill: rgb(0,0,0); fill-rule: nonzero; opacity: 1;"
					transform=" translate(-96.8, -28.76)"
					d="M 19.276 28.125999999999998 l 15.938 -10.625 l 0 22.5 l -4.6954 0 l 0 -13.726 l -11.242 7.4944 l -11.242 -7.4944 l 0 13.726 l -4.6954 0 l 0 -22.5 z M 73.774 16.974 l 0.083516 11.4 c 0.034258 2.5224 -0.98356 4.9712 -2.8664 6.896 c -1.9964 2.0406 -5.8816 4.484 -13.054 4.5368 c -0.069572 0.0005078 -0.13941 0.00078124 -0.20848 0.00078124 c -5.4292 0 -9.9632 -1.5595 -12.785 -4.402 c -1.9399 -1.954 -2.9907 -4.4436 -2.9611 -7.0128 l -0.083984 -11.384 l 4.6952 -0.034805 l 0.084492 11.433 l -0.00027344 0.025625 c -0.019375 1.3246 0.53336 2.5915 1.598 3.664 c 1.9603 1.9747 5.3772 3.043 9.6272 3.014 c 4.3352 -0.031914 7.7912 -1.1416 9.732 -3.1251 c 1.0183 -1.0408 1.5467 -2.2692 1.5279 -3.553 l 0 -0.016758 l -0.08422 -11.407 z M 86.156 22.009 c -0.43632 0.24117 -0.88236 0.64612 -0.88236 1.8193 c 0 0.91448 0.29558 1.4144 1.0547 1.7822 c 0.76772 0.37195 1.6239 0.39914 1.6671 0.4002 l 17.067 0.06672 c 2.9656 0 7.3912 1.8316 7.3912 6.8776 s -4.1128 6.8776 -6.8776 6.8776 l -24.997 0 l 0 -4.6954 l 24.977 0 c 0.2048 -0.0070704 0.81636 -0.08422 1.3204 -0.36305 c 0.43656 -0.24144 0.88256 -0.64636 0.88256 -1.8193 c 0 -0.91448 -0.29558 -1.4144 -1.0547 -1.7822 c -0.7654 -0.37094 -1.6208 -0.39894 -1.6686 -0.40024 l -17.056 -0.07586 l 0 0.0091406 c -2.975 0 -7.4008 -1.8316 -7.4008 -6.8776 s 4.1128 -6.8776 6.8776 -6.8776 l 24.997 0 l 0 4.6954 l -24.976 0 c -0.20457 0.0070704 -0.81668 0.08422 -1.321 0.36305 z M 151.666 36.6645 l -2.5642 3.8954 l -2.5185 -1.6579 c -2.2627 0.80044 -5.6176 0.83468 -11.589 0.89432 c -1.1575 0.011524 -2.2248 0.020156 -3.2094 0.020156 c -5.8708 0 -8.822 -0.31074 -10.708 -2.1844 c -1.9637 -1.9514 -1.953 -4.8252 -1.9368 -9.1752 c 0.018047 -4.854 0.029297 -7.7832 2.4897 -9.602 c 2.1225 -1.569 5.2052 -1.6103 11.959 -1.7011 l 1.3479 -0.018555 c 8.418 -0.12031 11.902 -0.17 14.071 1.9808 c 1.8353 1.8196 1.8201 4.452 1.7971 8.4364 c -0.0018359 0.29664 -0.0033984 0.604 -0.0046876 0.92236 c -0.0089064 2.3647 -0.015195 4.0732 -0.26344 5.514 c -0.083712 0.48524 -0.21215 1.0552 -0.44496 1.6407 z M 134.948 35.1328 c 2.1894 -0.021719 4.1344 -0.041288 5.7512 -0.10434 l -5.3084 -3.4947 l 2.5645 -3.8955 l 8.0296 5.2864 c 0.1402 -1.0484 0.14594 -2.6043 0.15301 -4.4672 c 0.0010547 -0.32176 0.0028906 -0.63228 0.0047264 -0.93176 c 0.013086 -2.2899 0.02668 -4.6576 -0.41724 -5.0976 c -0.55116 -0.54644 -3.0247 -0.67276 -6.3168 -0.67276 c -1.3547 0 -2.8481 0.021445 -4.4036 0.043672 l -1.3521 0.018555 c -4.8388 0.064884 -8.3348 0.11195 -9.25 0.78812 c -0.5776 0.42692 -0.587 2.9491 -0.59796 5.8692 c -0.010195 2.7118 -0.019883 5.2732 0.56032 5.8496 c 0.91108 0.90508 5.828 0.85564 10.583 0.80856 z M 163.074 35.238 l 27.18 0 l 0 4.6954 l -31.875 0 l 0 -22.815 l 4.6954 0 l 0 18.119 z"
					stroke-linecap="round" />
			</g>
		</g>
	</g>
	<g transform="matrix(1 0 0 1 160.5 233)">
		<line
			style="stroke: rgb(0,0,0); stroke-width: 2; stroke-dasharray: none; stroke-linecap: butt; stroke-dashoffset: 0; stroke-linejoin: miter; stroke-miterlimit: 4; fill: rgb(0,0,0); fill-rule: nonzero; opacity: 1;"
			x1="0" y1="0" x2="0" y2="0" />
	</g>
</svg>